<?xml version="1.0" encoding="UTF-8"?>
<svg id="Layer_2" data-name="Layer 2" xmlns="http://www.w3.org/2000/svg" viewBox="0 0 203.94 92.07">
  <defs>
    <style>
      .cls-1 {
        fill: #5b6064;
      }

      .cls-2 {
        fill: #f15f22;
      }
    </style>
  </defs>
  <g id="Layer_1-2" data-name="Layer 1">
    <g>
      <path class="cls-1" d="M15.08,48.66c-.06.46-.75,1.04-1.91,1.51l-4.35,1.74c-2.43.99-3.83,2.78-3.83,5.51,0,2.38.7,5.1,4.29,5.1,5.16,0,5.92-4.93,5.92-8.06v-5.8h-.12ZM25.34,62.24c-.99.75-2.38,1.45-4.35,1.45-3.71,0-5.1-1.68-5.74-4.52h-.12c-.58,1.45-1.91,4.52-7.65,4.52C1.04,63.69,0,60.44,0,58.06,0,52.61,4.76,52.09,9.05,50.69c5.16-1.68,6.32-2.03,6.32-6.67,0-3.71-.64-5.97-4.46-5.97-2.55,0-4.41.87-4.41,2.84,0,1.33.35,2.73.35,3.36,0,1.04-.81,1.91-2.26,1.91-2.55,0-2.84-1.04-2.84-2.49,0-3.42,3.13-6.44,9.05-6.44,7.13,0,9.4,3.88,9.4,8v14.44c0,2.2.75,2.84,2.03,2.84.81,0,1.86-.35,2.67-.93l.46.64Z"/>
      <path class="cls-1" d="M34.2,38.81h-4.47v-.81h9.34v5.86h.12c.64-2.26,2.73-6.5,7.6-6.5,3.6,0,5.16,2.49,5.16,4.81,0,2.55-1.39,3.19-2.9,3.19-1.68,0-2.55-.64-2.55-1.62,0-1.39.75-1.39.75-3.36,0-1.16-.7-1.86-2.03-1.86-2.43,0-6.03,3.83-6.03,10.26v13.28h5.05v.81h-14.5v-.81h4.47v-23.26Z"/>
      <path class="cls-1" d="M60.28,38.81h-4.47v-.81h9.34v6.2h.12c.93-2.03,3.31-6.84,9.98-6.84,5.1,0,8.64,2.38,8.64,7.77v16.93h4.46v.81h-13.92v-.81h4.47v-18.73c0-3.02-1.39-5.16-4.41-5.16-4.99,0-9.22,4.64-9.22,10.79v13.11h4.46v.81h-13.92v-.81h4.47v-23.26Z"/>
      <path class="cls-1" d="M109.87,47.68c.12-1.1.12-1.97.12-2.96,0-5.22-2.09-6.67-5.1-6.67-5.22,0-6.55,4.58-6.9,9.63h11.89ZM97.93,48.49c0,.76-.06,1.51-.06,2.73,0,5.16.81,11.66,7.66,11.66s8.35-4.7,8.93-6.55l.87.17c-.52,1.68-2.09,7.19-9.86,7.19s-13.4-5.22-13.4-13.11c0-6.84,5.74-13.34,13.05-13.34,4.29,0,10.67,2.78,10.67,11.25h-17.86Z"/>
      <path class="cls-1" d="M141.01,55.45c0,4.23-3.36,8.24-9.22,8.24-4.47.06-9.98-1.8-9.98-6.55,0-1.68,1.1-2.84,3.02-2.84,1.27,0,2.78.52,2.78,1.97,0,1.04-.81,2.84-.81,3.77,0,1.91,2.26,2.73,4.99,2.84,2.9,0,5.16-1.45,5.16-4.81,0-7.37-14.04-3.65-14.04-13.17,0-4.35,3.54-7.6,8.35-7.65,3.6-.06,8.35,1.57,8.35,5.68,0,1.45-.93,2.44-2.61,2.44-1.1,0-2.38-.46-2.38-1.68,0-.93.7-2.49.7-3.31,0-1.62-1.97-2.32-4.06-2.32-3.71,0-5.86,1.8-5.86,4.58,0,6.73,15.6,4.29,15.6,12.82"/>
      <path class="cls-2" d="M175.96,32.86c4.1-4.15,6.23-9.08,7.16-14.01,4.39,3.65,7.19,8.51,8.31,14-4.56,1.46-9.48,1.7-15.59-.01M203.87,24.63c-.15-.18-.38-.01-.38-.01-2.68,3.06-5.9,5.63-10.05,7.5-1.25-6.41-3.51-11.27-10.08-16.22-.3-6.24-1.95-10.97-5.39-15.78-.21-.25-.57,0-.44.28,2.67,4.41,3.94,9.39,3.69,14.49-6.02-2.69-11.27-3.33-17.66-2.37-.32.07-.26.52.07.51,6.44-.33,12.32,1.03,17.31,4.4-1.02,5.4-3.3,10.45-7.64,14.56-10.19-3.74-15.53-12.27-16.85-20.28-.1-.3-.53-.23-.51.09,1.01,9.08,5.54,17.03,15.14,22.03-4.35,3.52-10.87,5.88-17.19,5.78-.34.02-.35.45-.03.51,7.27.66,13.97-1.08,19.95-5.25,6.23,1.57,12.02,1.86,17.94-.09.52,5.27-.3,10.47-2.77,15.17-.12.3.26.5.46.25,3.15-5.03,4.37-10.17,4.21-16.14,4.9-2.82,7.48-5.43,10.21-9.08,0,0,.15-.17,0-.34"/>
      <path class="cls-2" d="M3.38,87.42c1.77,0,3.04-1.64,3.04-4,0-2.15-.76-3.75-2.77-3.75-.87,0-1.8.51-2.86,1.44v5.18c1,.82,1.91,1.13,2.58,1.13M.8,88.67v3.18h-.8v-12.68h.69l.07,1.09h.05c.85-.67,1.89-1.31,2.96-1.31,2.33,0,3.49,1.75,3.49,4.46,0,2.96-1.8,4.71-3.86,4.71-.82,0-1.71-.4-2.62-1.07v1.62Z"/>
      <path class="cls-2" d="M13.25,87.41c1.76,0,3.09-1.57,3.09-3.86s-1.33-3.89-3.09-3.89-3.08,1.58-3.08,3.89,1.31,3.86,3.08,3.86M13.25,78.95c2.11,0,3.93,1.67,3.93,4.6s-1.82,4.57-3.93,4.57-3.91-1.67-3.91-4.57,1.82-4.6,3.91-4.6"/>
      <path class="cls-2" d="M18.29,79.17h.87l1.96,5.48c.27.84.6,1.71.87,2.51h.07c.29-.8.6-1.67.89-2.51l1.96-5.48h.82l-3.24,8.73h-.95l-3.27-8.73Z"/>
      <path class="cls-2" d="M33.24,83.03c0-2.24-1-3.38-2.57-3.38s-2.82,1.29-3,3.38h5.57ZM30.66,78.95c2.07,0,3.35,1.47,3.35,4.04,0,.22,0,.44-.04.65h-6.29c.04,2.2,1.33,3.78,3.29,3.78.95,0,1.69-.31,2.35-.78l.33.62c-.69.42-1.47.86-2.75.86-2.24,0-4.04-1.71-4.04-4.57s1.85-4.6,3.8-4.6"/>
    </g>
    <polygon class="cls-2" points="35.49 87.47 40.66 79.86 36.06 79.86 36.06 79.17 41.7 79.17 41.7 79.59 36.55 87.2 41.88 87.2 41.88 87.91 35.49 87.91 35.49 87.47"/>
    <g>
      <path class="cls-2" d="M43.86,79.17h.8v5.49c0,1.86.58,2.73,1.98,2.73,1.04,0,1.8-.55,2.82-1.78v-6.44h.8v8.73h-.67l-.09-1.46h-.04c-.85,1-1.76,1.67-2.96,1.67-1.8,0-2.64-1.09-2.64-3.35v-5.6Z"/>
      <path class="cls-2" d="M53.18,76.35c0-.45.35-.73.73-.73.4,0,.75.27.75.73,0,.42-.35.71-.75.71s-.73-.29-.73-.71M53.49,79.17h.82v10.35c0,1.71-.62,2.55-1.97,2.55-.42,0-.85-.11-1.13-.22l.2-.65c.22.07.56.18.91.18.98,0,1.16-.8,1.16-1.91v-10.3Z"/>
      <path class="cls-2" d="M63.23,83.03c0-2.24-1-3.38-2.57-3.38s-2.82,1.29-3,3.38h5.57ZM60.65,78.95c2.07,0,3.35,1.47,3.35,4.04,0,.22,0,.44-.04.65h-6.29c.04,2.2,1.33,3.78,3.29,3.78.95,0,1.69-.31,2.35-.78l.33.62c-.69.42-1.47.86-2.75.86-2.24,0-4.04-1.71-4.04-4.57s1.86-4.6,3.8-4.6"/>
      <path class="cls-2" d="M66.43,79.17h.69l.07,1.35h.05c.78-.89,1.78-1.57,2.75-1.57,1.4,0,2.11.71,2.42,1.78,1-1.09,1.96-1.78,2.97-1.78,1.75,0,2.62,1.09,2.62,3.35v5.6h-.82v-5.49c0-1.86-.62-2.73-1.95-2.73-.82,0-1.66.55-2.62,1.64v6.59h-.8v-5.49c0-1.86-.62-2.73-1.97-2.73-.78,0-1.65.55-2.62,1.64v6.59h-.8v-8.73Z"/>
      <path class="cls-2" d="M84.45,87.41c1.76,0,3.09-1.57,3.09-3.86s-1.33-3.89-3.09-3.89-3.08,1.58-3.08,3.89,1.31,3.86,3.08,3.86M84.45,78.95c2.11,0,3.93,1.67,3.93,4.6s-1.82,4.57-3.93,4.57-3.91-1.67-3.91-4.57,1.82-4.6,3.91-4.6"/>
    </g>
    <polygon class="cls-2" points="93.8 87.47 98.97 79.86 94.36 79.86 94.36 79.17 100 79.17 100 79.59 94.86 87.2 100.19 87.2 100.19 87.91 93.8 87.91 93.8 87.47"/>
    <g>
      <path class="cls-2" d="M102.33,79.17h.69l.07,1.35h.05c.89-.89,1.8-1.57,3-1.57,1.8,0,2.64,1.09,2.64,3.35v5.6h-.8v-5.49c0-1.86-.58-2.73-2-2.73-1.04,0-1.78.55-2.86,1.64v6.59h-.8v-8.73Z"/>
      <path class="cls-2" d="M113.97,87.43c1,0,1.89-.49,2.97-1.42v-2.97c-3.58.42-4.8,1.26-4.8,2.64,0,1.26.84,1.75,1.84,1.75M116.94,82.43c.04-1.33-.35-2.76-2.06-2.76-1.18,0-2.2.58-2.78,1.02l-.36-.6c.62-.44,1.82-1.13,3.24-1.13,2.07,0,2.77,1.49,2.77,3.37v5.59h-.67l-.09-1.13h-.04c-.89.71-1.95,1.35-3.09,1.35-1.38,0-2.55-.75-2.55-2.4,0-1.93,1.77-2.86,5.64-3.29"/>
      <path class="cls-2" d="M120.8,79.17h.69l.07,1.35h.05c.89-.89,1.8-1.57,3-1.57,1.8,0,2.64,1.09,2.64,3.35v5.6h-.8v-5.49c0-1.86-.58-2.73-2-2.73-1.04,0-1.78.55-2.86,1.64v6.59h-.8v-8.73Z"/>
      <path class="cls-2" d="M130.03,76.35c0-.45.35-.73.73-.73.4,0,.75.27.75.73,0,.42-.35.71-.75.71s-.73-.29-.73-.71M130.34,79.17h.82v10.35c0,1.71-.62,2.55-1.97,2.55-.42,0-.85-.11-1.13-.22l.2-.65c.22.07.56.18.91.18.98,0,1.16-.8,1.16-1.91v-10.3Z"/>
      <path class="cls-2" d="M140.09,83.03c0-2.24-1-3.38-2.57-3.38s-2.82,1.29-3,3.38h5.57ZM137.5,78.95c2.07,0,3.35,1.47,3.35,4.04,0,.22,0,.44-.04.65h-6.29c.04,2.2,1.33,3.78,3.29,3.78.95,0,1.69-.31,2.35-.78l.33.62c-.69.42-1.47.86-2.75.86-2.24,0-4.04-1.71-4.04-4.57s1.85-4.6,3.8-4.6"/>
    </g>
  </g>
</svg>