<?xml version="1.0" encoding="utf-8"?>
<!-- Generator: Adobe Illustrator 23.0.1, SVG Export Plug-In . SVG Version: 6.00 Build 0)  -->
<svg version="1.1" xmlns="http://www.w3.org/2000/svg" xmlns:xlink="http://www.w3.org/1999/xlink" x="0px" y="0px"
	 viewBox="0 0 863.7 260.9" style="enable-background:new 0 0 863.7 260.9;" xml:space="preserve">
<style type="text/css">
	.Tiefen{fill:#FFFFFF;}
	.st0{fill:#333333;}
</style>
<g id="Hintergrund">
</g>
<g id="Ebene_1">
	<g>
		<path class="st0" d="M73.4,239.2c-21.9,0-36.9-1.2-66.8-4.7V5.3h39V72c12.1-5.9,26.3-8,39-8c46.1,0,67.3,23.3,67.3,73.8v23
			C152,217.1,125.4,239.2,73.4,239.2z M113,137.6c0-30.1-8.6-40.5-33.4-40.5c-7.4,0-23.9,1.2-34.3,6.2v101.3
			c6.5,0.3,16.5,1.2,28.7,1.2c27.2,0,39-10,39-44.9V137.6z"/>
		<path class="st0" d="M290.8,234.8v-8.6c-11.5,7.4-26.9,12.7-46.4,12.7c-39.3,0-62.3-23.3-62.3-74.1v-23.6
			c0-59.4,27.8-76.8,78.3-76.8c17.1,0,44,1.2,67.1,4.1v166.3H290.8z M288.8,98.3c-10.6-0.9-24.5-1.5-29.8-1.5
			c-24.8,0-37.8,6.8-37.8,44.3v23.6c0,29.8,9.7,41.4,34,41.4c12.1,0,23.6-3,33.7-7.4V98.3z"/>
		<path class="st0" d="M437.3,239.2c-21.9,0-36.9-1.2-66.8-4.7V5.3h39V72c12.1-5.9,26.3-8,39-8c46.1,0,67.3,23.3,67.3,73.8v23
			C515.9,217.1,489.3,239.2,437.3,239.2z M476.9,137.6c0-30.1-8.6-40.5-33.4-40.5c-7.4,0-23.9,1.2-34.3,6.2v101.3
			c6.5,0.3,16.5,1.2,28.7,1.2c27.2,0,39-10,39-44.9V137.6z"/>
		<path class="st0" d="M553.4,42.8V5.3h40.2v37.5H553.4z M553.7,234.8V68.5H593v166.3H553.7z"/>
		<path class="st0" d="M669.5,163.9v3c0,24.2,3.5,39.9,44.3,39.9c17.4,0,38.1-1.8,60-3.8v29.2c-12.4,3-34,7.1-61.7,7.1
			c-60,0-81.2-23-81.2-81.5v-10.3c0-55.8,25.4-83,75-83c55.5,0,75,36,75,86.5v13H669.5z M741.9,135.8c0-19.2-3.8-40.2-36-40.2
			c-31.3,0-36,21.3-36,40.2v2.7h72.1V135.8z"/>
		<path class="st0" d="M818.1,234.8V5.3h39v229.5H818.1z"/>
	</g>
</g>
</svg>
