<svg xmlns="http://www.w3.org/2000/svg" xmlns:xlink="http://www.w3.org/1999/xlink" viewBox="0 0 1895.29 492.15"><defs><linearGradient id="A" x1="0" y1="214.04" x2="285.39" y2="214.04" gradientUnits="userSpaceOnUse"><stop offset="0" stop-color="#29ebc6"/><stop offset="1" stop-color="#0cdceb"/></linearGradient><linearGradient id="B" x1="61.18" y1="278.11" x2="346.57" y2="278.11" xlink:href="#A"/><linearGradient id="C" x1="149.34" y1="-66.35" x2="510.17" y2="320.96" xlink:href="#A"/><linearGradient id="D" x1="162.67" y1="-78.77" x2="523.5" y2="308.54" xlink:href="#A"/><linearGradient id="E" x1="233.06" y1="-144.35" x2="593.89" y2="242.96" xlink:href="#A"/><path id="F" d="M618.57 231.42c0 16.22-9.7 27.9-25.72 31.26 19.98 2.97 31.66 16.03 31.66 35.02 0 23.54-18.6 37.59-50.06 37.59h-59.16V196.8h58.37c27.9 0 44.91 12.86 44.91 34.62zm-16.22 2.37c0-14.25-10.88-22.36-29.48-22.36h-41.75v45.31h41.75c18.6 0 29.48-8.31 29.48-22.95zm6.13 61.93c0-15.43-13.06-24.53-35.61-24.34h-41.75v49.27h41.75c22.56.2 35.61-8.9 35.61-24.93z"/><path id="G" d="M908.61,196.8v14.64h-78.15v46.5h69.84v14.44h-69.84v48.28h80.72v14.64h-96.55V196.8h93.98Z"/></defs><g fill="#0f526d"><use xlink:href="#F"/><path d="M700.47,196.8v123.86h60.74v14.64h-76.57V196.8h15.83Z"/><use xlink:href="#G"/><path d="M987.55 196.8l83.1 112.58V196.8h15.63v138.5h-16.22l-83.1-112.38V335.3h-15.83V196.8h16.42zm295.79 69.25c0 39.37-31.06 69.25-71.82 69.25h-55.4V196.8h55.99c40.36 0 71.23 29.88 71.23 69.25zm-16.03.2c0-31.26-24.53-54.81-55.6-54.81h-39.77v109.22h40.36c30.87 0 55-23.35 55-54.41z"/><use xlink:href="#F" x="824.63"/><path d="M1558.34 287.22v48.08h-15.63v-47.68l-53.62-90.82h16.42l44.91 72.61 44.32-72.61h16.22l-52.63 90.42zm189.74-90.42v14.64h-45.31V335.3h-15.83V211.44h-45.11V196.8h106.25z"/><use xlink:href="#G" x="984.1"/></g><path d="M17.84,0V410.25h249.71V160.53H71.35v-17.84h214.04V428.08H0V0H17.84Z" fill="url(#A)"/><path d="M79.02,64.07V474.32h249.71V224.6H132.53v-17.84h214.04V492.15H61.18V64.07h17.84Z" fill="url(#B)"/><path d="M326.62 125.53h43.28v43.28h-43.28z" fill="url(#C)"/><path d="M294.47 63.7h27.2v27.2h-27.2z" fill="url(#D)"/><path d="M388.45 22.89h12.37v12.37h-12.37z" fill="url(#E)"/></svg>
