<?xml version="1.0" encoding="UTF-8" standalone="no"?>
<!-- Generator: Adobe Illustrator 25.4.7, SVG Export Plug-In . SVG Version: 6.00 Build 0)  -->

<svg
   version="1.1"
   id="Layer_1"
   x="0px"
   y="0px"
   viewBox="0 0 472.31999 189"
   xml:space="preserve"
   sodipodi:docname="netways.svg"
   width="472.32001"
   height="189"
   inkscape:version="1.4.2 (ebf0e940d0, 2025-05-08)"
   xmlns:inkscape="http://www.inkscape.org/namespaces/inkscape"
   xmlns:sodipodi="http://sodipodi.sourceforge.net/DTD/sodipodi-0.dtd"
   xmlns="http://www.w3.org/2000/svg"
   xmlns:svg="http://www.w3.org/2000/svg"><defs
   id="defs10" /><sodipodi:namedview
   id="namedview10"
   pagecolor="#ffffff"
   bordercolor="#000000"
   borderopacity="0.25"
   inkscape:showpageshadow="2"
   inkscape:pageopacity="0.0"
   inkscape:pagecheckerboard="0"
   inkscape:deskcolor="#d1d1d1"
   inkscape:zoom="0.82481932"
   inkscape:cx="362.50363"
   inkscape:cy="732.28159"
   inkscape:window-width="1938"
   inkscape:window-height="1844"
   inkscape:window-x="930"
   inkscape:window-y="44"
   inkscape:window-maximized="0"
   inkscape:current-layer="Layer_1" />
<style
   type="text/css"
   id="style1">
	.st0{enable-background:new    ;}
	.st1{fill-rule:evenodd;clip-rule:evenodd;fill:#F15623;}
</style>






<g
   id="g11"
   transform="matrix(0.66736092,0,0,0.66736092,-43.652172,-91.153406)"><g
     class="st0"
     id="g1">
	<path
   d="M 241.6,319.8 H 223.9 L 193.7,271 v 48.8 h -16.8 v -71.1 h 21.9 l 25.9,40.7 v -40.7 h 16.8 v 71.1 z"
   id="path1" />
</g><g
     class="st0"
     id="g3">
	<path
   d="m 311.2,319.8 h -51.4 v -71.1 h 51.4 v 13.7 H 278 v 12.3 h 30.8 v 13.7 H 278 V 306 h 33.2 z"
   id="path2" />
	<path
   d="M 382.2,262.5 H 360 v 57.3 h -18.3 v -57.3 h -22.2 v -13.7 h 62.7 z"
   id="path3" />
</g><g
     class="st0"
     id="g5">
	<path
   d="M 485.7,249.2 452,319.4 h -10.8 l -2.1,-58.1 -27.2,58.1 h -10.4 l -2.9,-70.2 h 9.5 l 1.9,58.3 27.5,-58.3 h 9.5 l 1.9,58.9 27.7,-58.9 z"
   id="path4" />
	<path
   d="m 540,319.4 h -9.5 l -2.4,-19.7 h -30.2 l -11.5,19.7 h -9.9 l 41.8,-70.2 h 12.3 z M 527.1,292 522.6,257.5 502.3,292 Z"
   id="path5" />
</g><g
     class="st0"
     id="g7">
	<path
   d="m 617.1,249.2 -33.6,39.4 -7.1,30.8 H 567 l 6.9,-29.8 -15.7,-40.4 h 10 l 12.2,31.5 26.5,-31.5 z"
   id="path6" />
	<path
   d="m 635.1,320.7 c -4.6,0 -8.9,-0.5 -13,-1.4 -4.1,-1 -8.2,-2.4 -12.1,-4.4 l 2.3,-10.7 h 0.7 c 3,2.9 6.7,5.1 11.1,6.6 4.4,1.5 8.6,2.3 12.7,2.3 6.7,0 11.8,-1.3 15.4,-4 3.6,-2.7 5.3,-6 5.3,-10.2 0,-2.2 -0.6,-4 -1.9,-5.4 -1.3,-1.4 -3.1,-2.5 -5.6,-3.2 -2,-0.6 -4.5,-1.1 -7.3,-1.6 -2.8,-0.5 -5.5,-1.1 -8,-1.7 -4.9,-1.1 -8.8,-3 -11.5,-5.7 -2.7,-2.7 -4.1,-6 -4.1,-9.9 0,-6.7 2.8,-12.3 8.5,-16.7 5.7,-4.4 13,-6.7 22,-6.7 4.9,0 9.4,0.5 13.4,1.5 4,1 7.5,2.2 10.3,3.6 l -2.1,10 h -0.7 c -2.2,-2 -5.4,-3.8 -9.5,-5.3 -4.1,-1.5 -8.5,-2.2 -13,-2.2 -5.7,0 -10.3,1.3 -13.7,3.8 -3.4,2.5 -5.1,5.7 -5.1,9.6 0,2.1 0.6,3.9 1.8,5.5 1.2,1.6 3.4,2.8 6.6,3.5 2,0.5 4.7,1 8,1.7 3.3,0.7 6.1,1.3 8.4,1.9 4.5,1.2 7.8,3 10.2,5.5 2.3,2.4 3.5,5.5 3.5,9.1 0,3.1 -0.8,6.1 -2.3,9.2 -1.5,3.1 -3.6,5.7 -6.3,7.8 -2.9,2.3 -6.3,4.1 -10.2,5.5 -3.9,1.3 -8.5,2 -13.8,2 z"
   id="path7" />
</g><g
     id="g8">
	<rect
   x="91.099998"
   y="249.2"
   class="st1"
   width="71.800003"
   height="70.599998"
   id="rect7" />
</g><g
     id="g9">
	<polygon
   class="st1"
   points="750.8,283.9 721.1,301.2 690.2,319.8 690.2,283.9 690.2,249.2 721.1,266.5 "
   id="polygon8" />
</g><g
     class="st0"
     id="g10">
	<path
   d="m 750.8,238.9 c 0,3.8 -1.3,7 -4,9.6 -2.7,2.6 -5.9,4 -9.6,4 -3.8,0 -7,-1.3 -9.6,-4 -2.6,-2.7 -4,-5.9 -4,-9.6 0,-3.7 1.3,-7 4,-9.6 2.7,-2.7 5.9,-4 9.6,-4 3.7,0 7,1.3 9.6,4 2.7,2.7 4,5.9 4,9.6 z m -1.8,0 c 0,-3.2 -1.2,-6 -3.4,-8.4 -2.3,-2.3 -5.1,-3.5 -8.3,-3.5 -3.2,0 -6,1.2 -8.3,3.5 -2.3,2.3 -3.4,5.1 -3.4,8.4 0,3.3 1.1,6 3.4,8.4 2.3,2.3 5.1,3.5 8.3,3.5 3.2,0 6,-1.2 8.3,-3.5 2.2,-2.3 3.4,-5.1 3.4,-8.4 z m -3,6.9 h -3.5 l -5.2,-5.6 h -2.5 v 5.6 h -2.6 v -14.4 h 4.9 c 1,0 1.8,0 2.4,0.1 0.6,0.1 1.3,0.3 1.9,0.6 0.7,0.4 1.1,0.8 1.5,1.3 0.3,0.5 0.5,1.1 0.5,1.9 0,1 -0.3,1.9 -0.9,2.5 -0.6,0.7 -1.4,1.2 -2.4,1.6 z m -5.6,-10.2 c 0,-0.4 -0.1,-0.7 -0.2,-1 -0.1,-0.3 -0.4,-0.5 -0.7,-0.7 -0.3,-0.2 -0.7,-0.3 -1,-0.3 -0.4,-0.1 -0.8,-0.1 -1.4,-0.1 h -2.3 v 4.9 h 2 c 0.6,0 1.2,0 1.7,-0.1 0.5,-0.1 0.9,-0.3 1.2,-0.5 0.3,-0.3 0.6,-0.5 0.7,-0.9 0,-0.5 0,-0.9 0,-1.3 z"
   id="path9" />
</g></g>
</svg>
